<?xml version="1.0" standalone="no"?>
<svg viewBox="0 0 200 200" xmlns="http://www.w3.org/2000/svg">
  <path fill="#EABE7F" d="M32.5,-53.9C46.9,-48,66.7,-49,78.5,-41.1C90.4,-33.3,94.2,-16.7,89.6,-2.6C85.1,11.4,72.2,22.8,58.9,28.1C45.6,33.3,31.9,32.5,22,40.8C12.2,49.2,6.1,66.8,-2.8,71.6C-11.6,76.4,-23.3,68.4,-37.7,62.7C-52,56.9,-69.2,53.4,-76.1,43.3C-83,33.2,-79.7,16.6,-74.7,2.9C-69.8,-10.9,-63.2,-21.8,-53.2,-26.5C-43.2,-31.2,-29.8,-29.8,-20.3,-38.6C-10.9,-47.5,-5.4,-66.6,1.8,-69.8C9,-72.9,18.1,-59.9,32.5,-53.9Z" transform="translate(100 100)" />
</svg>
